# xmcd
#
# Track frame offsets: 
#        150
#        13374
#        26397
#        38814
#        50728
#        62526
#        72448
#        83342
#        95786
#        108046
#        119143
#        131508
#
# Disc length: 1915 seconds
#
# Revision: 0
# Processed by: cddbd v1.5.2PL0 Copyright (c) Steve Scherf et al.
# Submitted via: ExactAudioCopy v0.99pb5
#
DISCID=a107790c
DTITLE=Hank Williams - The Best Of Hank Williams
DYEAR=1994
DGENRE=Country
TTITLE0=Hey, Good Lookin'
TTITLE1=Jambalaya (On The Bayou)
TTITLE2=Move It On Over
TTITLE3=Long Gone Lonesome Blues
TTITLE4=Settin' The Woods On Fire
TTITLE5=Honky Tonk Blues
TTITLE6=Why Don't You Love Me
TTITLE7=Honky Tonkin'
TTITLE8=Lost Highway
TTITLE9=(I Heard That) Lonesome Whistle
TTITLE10=I Saw The Light
TTITLE11=Lovesick Blues
EXTD=
EXTT0=
EXTT1=
EXTT2=
EXTT3=
EXTT4=
EXTT5=
EXTT6=
EXTT7=
EXTT8=
EXTT9=
EXTT10=
EXTT11=
PLAYORDER=
